# xmcd
#
# Track frame offsets: 
#        150
#        18442
#        32040
#        48515
#        65197
#        77375
#        105399
#        120905
#        142624
#        159981
#        177714
#
# Disc length: 2582 seconds
#
# Revision: 0
# Processed by: cddbd v1.5.2PL0 Copyright (c) Steve Scherf et al.
# Submitted via: ExactAudioCopy v0.99pb5
#
DISCID=820a140b
DTITLE=ДиДюЛя - Аромат
DYEAR=2010
DGENRE=Instrumental
TTITLE0=Один день в сентябре
TTITLE1=Торо-ко-ко, пэк-пэк
TTITLE2=Воздушный змей
TTITLE3=Прогулка
TTITLE4=Мерцает звук
TTITLE5=После дождя
TTITLE6=Затерянный грот
TTITLE7=Кольца времени
TTITLE8=На рассвете
TTITLE9=Прощай поверхность!
TTITLE10=Аромат
EXTD=
EXTT0=
EXTT1=
EXTT2=
EXTT3=
EXTT4=
EXTT5=
EXTT6=
EXTT7=
EXTT8=
EXTT9=
EXTT10=
PLAYORDER=
